# xmcd
#
# Track frame offsets:
#  183
#  14013
#  27020
#  41438
#  53678
#  66608
#  80473
#  92388
#  105703
#  118495
#  131558
#  144668
#  156278
#  166725
#  179878
#  204375
#
# Disc length: 3113 seconds
#
# Revision: 0
# Processed by: cddbd v1.5.1PL2 Copyright (c) Steve Scherf et al.
# Submitted via: Collectorz.com_Music_Collector 6.9
#
DISCID=e10c2710
DTITLE=Ray CHARLES - Ray Charles - A Man and His Music - CD 2
DYEAR=1993
DGENRE=Blues - R&B - Soul
TTITLE0=The Midnight Hour
TTITLE1=Heartbreaker
TTITLE2=Losing Hand
TTITLE3=Ness Around
TTITLE4=Feelin' Sad
TTITLE5=A Fool For You
TTITLE6=Hallelujah I Love Her So
TTITLE7=Hard Times
TTITLE8=Mary Ann
TTITLE9=I Got A Woman
TTITLE10=Talkin' About You
TTITLE11=This Little Girl Of Mine
TTITLE12=Yes Indeed
TTITLE13=Let The Good Times Roll
TTITLE14=The Genius After Hours
TTITLE15=What's I Say
EXTD=
EXTT0=
EXTT1=
EXTT2=
EXTT3=
EXTT4=
EXTT5=
EXTT6=
EXTT7=
EXTT8=
EXTT9=
EXTT10=
EXTT11=
EXTT12=
EXTT13=
EXTT14=
EXTT15=
PLAYORDER=
